<svg xmlns="http://www.w3.org/2000/svg" version="1.1" xmlns:xlink="http://www.w3.org/1999/xlink" xmlns:svgjs="http://svgjs.com/svgjs" width="1440" height="560" preserveAspectRatio="none" viewBox="0 0 1440 560"><g mask="url(&quot;#SvgjsMask1023&quot;)" fill="none"><rect width="1440" height="560" x="0" y="0" fill="rgba(15, 23, 41, 1)"></rect><path d="M480 7L-563 6" stroke-width="6" stroke="url(#SvgjsLinearGradient1024)" stroke-linecap="round" class="Left"></path><path d="M200 529L970 528" stroke-width="8" stroke="url(#SvgjsLinearGradient1025)" stroke-linecap="round" class="Right"></path><path d="M843 188L1501 187" stroke-width="10" stroke="url(#SvgjsLinearGradient1025)" stroke-linecap="round" class="Right"></path><path d="M1404 418L991 417" stroke-width="10" stroke="url(#SvgjsLinearGradient1025)" stroke-linecap="round" class="Right"></path><path d="M867 58L1902 57" stroke-width="8" stroke="url(#SvgjsLinearGradient1025)" stroke-linecap="round" class="Right"></path><path d="M669 213L1347 212" stroke-width="6" stroke="url(#SvgjsLinearGradient1025)" stroke-linecap="round" class="Right"></path><path d="M492 97L1475 96" stroke-width="8" stroke="url(#SvgjsLinearGradient1025)" stroke-linecap="round" class="Right"></path><path d="M1280 486L625 485" stroke-width="8" stroke="url(#SvgjsLinearGradient1025)" stroke-linecap="round" class="Right"></path><path d="M141 260L-857 259" stroke-width="10" stroke="url(#SvgjsLinearGradient1025)" stroke-linecap="round" class="Right"></path><path d="M137 91L-759 90" stroke-width="6" stroke="url(#SvgjsLinearGradient1024)" stroke-linecap="round" class="Left"></path><path d="M501 239L-141 238" stroke-width="8" stroke="url(#SvgjsLinearGradient1024)" stroke-linecap="round" class="Left"></path><path d="M590 423L1496 422" stroke-width="10" stroke="url(#SvgjsLinearGradient1025)" stroke-linecap="round" class="Right"></path><path d="M1135 22L194 21" stroke-width="8" stroke="url(#SvgjsLinearGradient1025)" stroke-linecap="round" class="Right"></path><path d="M309 112L843 111" stroke-width="6" stroke="url(#SvgjsLinearGradient1025)" stroke-linecap="round" class="Right"></path></g><defs><mask id="SvgjsMask1023"><rect width="1440" height="560" fill="#ffffff"></rect></mask><linearGradient x1="100%" y1="0%" x2="0%" y2="0%" id="SvgjsLinearGradient1024"><stop stop-color="rgba(130, 141, 248, 0)" offset="0"></stop><stop stop-color="rgba(130, 141, 248, 1)" offset="1"></stop></linearGradient><linearGradient x1="0%" y1="0%" x2="100%" y2="0%" id="SvgjsLinearGradient1025"><stop stop-color="rgba(130, 141, 248, 0)" offset="0"></stop><stop stop-color="rgba(130, 141, 248, 1)" offset="1"></stop></linearGradient></defs></svg>