<svg xmlns="http://www.w3.org/2000/svg" version="1.1" xmlns:xlink="http://www.w3.org/1999/xlink" xmlns:svgjs="http://svgjs.com/svgjs" width="1440" height="13000" preserveAspectRatio="none" viewBox="0 0 1440 13000"><g mask="url(&quot;#SvgjsMask1022&quot;)" fill="none"><rect width="1440" height="13000" x="0" y="0" fill="rgba(15, 23, 41, 1)"></rect><path d="M574 12874L573 19735" stroke-width="6" stroke="url(#SvgjsLinearGradient1023)" stroke-linecap="round" class="Up"></path><path d="M1029 7131L1028 -2453" stroke-width="10" stroke="url(#SvgjsLinearGradient1024)" stroke-linecap="round" class="Down"></path><path d="M151 2268L150 -5938" stroke-width="6" stroke="url(#SvgjsLinearGradient1024)" stroke-linecap="round" class="Down"></path><path d="M487 12149L486 2863" stroke-width="8" stroke="url(#SvgjsLinearGradient1023)" stroke-linecap="round" class="Up"></path><path d="M1244 7110L1243 10797" stroke-width="10" stroke="url(#SvgjsLinearGradient1024)" stroke-linecap="round" class="Down"></path><path d="M231 641L230 6689" stroke-width="8" stroke="url(#SvgjsLinearGradient1023)" stroke-linecap="round" class="Up"></path><path d="M1115 3015L1114 -4179" stroke-width="10" stroke="url(#SvgjsLinearGradient1023)" stroke-linecap="round" class="Up"></path><path d="M999 3673L998 12757" stroke-width="10" stroke="url(#SvgjsLinearGradient1023)" stroke-linecap="round" class="Up"></path><path d="M1262 2504L1261 -6491" stroke-width="10" stroke="url(#SvgjsLinearGradient1023)" stroke-linecap="round" class="Up"></path><path d="M1019 742L1018 -2873" stroke-width="8" stroke="url(#SvgjsLinearGradient1023)" stroke-linecap="round" class="Up"></path><path d="M968 12647L967 8838" stroke-width="10" stroke="url(#SvgjsLinearGradient1024)" stroke-linecap="round" class="Down"></path><path d="M1286 4061L1285 -4889" stroke-width="8" stroke="url(#SvgjsLinearGradient1023)" stroke-linecap="round" class="Up"></path><path d="M461 2950L460 11436" stroke-width="10" stroke="url(#SvgjsLinearGradient1024)" stroke-linecap="round" class="Down"></path><path d="M1243 5069L1242 1513" stroke-width="8" stroke="url(#SvgjsLinearGradient1023)" stroke-linecap="round" class="Up"></path><path d="M481 7067L480 2770" stroke-width="6" stroke="url(#SvgjsLinearGradient1023)" stroke-linecap="round" class="Up"></path><path d="M1147 6228L1146 14350" stroke-width="8" stroke="url(#SvgjsLinearGradient1023)" stroke-linecap="round" class="Up"></path><path d="M207 5845L206 9678" stroke-width="8" stroke="url(#SvgjsLinearGradient1023)" stroke-linecap="round" class="Up"></path><path d="M1236 3361L1235 -3444" stroke-width="6" stroke="url(#SvgjsLinearGradient1023)" stroke-linecap="round" class="Up"></path><path d="M1271 9192L1270 18212" stroke-width="8" stroke="url(#SvgjsLinearGradient1023)" stroke-linecap="round" class="Up"></path><path d="M641 7418L640 3076" stroke-width="10" stroke="url(#SvgjsLinearGradient1023)" stroke-linecap="round" class="Up"></path><path d="M448 1519L447 5089" stroke-width="6" stroke="url(#SvgjsLinearGradient1023)" stroke-linecap="round" class="Up"></path><path d="M1306 2958L1305 -2420" stroke-width="6" stroke="url(#SvgjsLinearGradient1023)" stroke-linecap="round" class="Up"></path><path d="M1275 9432L1274 5628" stroke-width="8" stroke="url(#SvgjsLinearGradient1023)" stroke-linecap="round" class="Up"></path><path d="M1236 12557L1235 9186" stroke-width="10" stroke="url(#SvgjsLinearGradient1023)" stroke-linecap="round" class="Up"></path><path d="M774 9663L773 18456" stroke-width="10" stroke="url(#SvgjsLinearGradient1024)" stroke-linecap="round" class="Down"></path><path d="M1152 5723L1151 -547" stroke-width="6" stroke="url(#SvgjsLinearGradient1023)" stroke-linecap="round" class="Up"></path><path d="M85 2096L84 9410" stroke-width="10" stroke="url(#SvgjsLinearGradient1024)" stroke-linecap="round" class="Down"></path><path d="M1243 7009L1242 205" stroke-width="8" stroke="url(#SvgjsLinearGradient1024)" stroke-linecap="round" class="Down"></path><path d="M1356 8687L1355 4909" stroke-width="10" stroke="url(#SvgjsLinearGradient1024)" stroke-linecap="round" class="Down"></path><path d="M1124 12621L1123 21529" stroke-width="10" stroke="url(#SvgjsLinearGradient1023)" stroke-linecap="round" class="Up"></path><path d="M1237 11127L1236 4163" stroke-width="6" stroke="url(#SvgjsLinearGradient1023)" stroke-linecap="round" class="Up"></path><path d="M357 10767L356 14400" stroke-width="8" stroke="url(#SvgjsLinearGradient1024)" stroke-linecap="round" class="Down"></path><path d="M1207 4304L1206 -2085" stroke-width="6" stroke="url(#SvgjsLinearGradient1024)" stroke-linecap="round" class="Down"></path><path d="M99 5395L98 -2135" stroke-width="8" stroke="url(#SvgjsLinearGradient1023)" stroke-linecap="round" class="Up"></path><path d="M1190 11383L1189 3747" stroke-width="8" stroke="url(#SvgjsLinearGradient1024)" stroke-linecap="round" class="Down"></path><path d="M535 3196L534 7259" stroke-width="6" stroke="url(#SvgjsLinearGradient1023)" stroke-linecap="round" class="Up"></path></g><defs><mask id="SvgjsMask1022"><rect width="1440" height="13000" fill="#ffffff"></rect></mask><linearGradient x1="0%" y1="100%" x2="0%" y2="0%" id="SvgjsLinearGradient1023"><stop stop-color="rgba(94, 100, 159, 0)" offset="0"></stop><stop stop-color="rgba(94, 100, 159, 1)" offset="1"></stop></linearGradient><linearGradient x1="0%" y1="0%" x2="0%" y2="100%" id="SvgjsLinearGradient1024"><stop stop-color="rgba(94, 100, 159, 0)" offset="0"></stop><stop stop-color="rgba(94, 100, 159, 1)" offset="1"></stop></linearGradient></defs></svg>