<svg xmlns="http://www.w3.org/2000/svg" version="1.1" xmlns:xlink="http://www.w3.org/1999/xlink" xmlns:svgjs="http://svgjs.com/svgjs" width="1440" height="560" preserveAspectRatio="none" viewBox="0 0 1440 560"><g mask="url(&quot;#SvgjsMask1008&quot;)" fill="none"><rect width="1440" height="560" x="0" y="0" fill="rgba(15, 23, 41, 1)"></rect><path d="M-48.79 357.82L-48.79 357.82" stroke="rgba(130, 141, 248, 1)" stroke-width="1.5"></path><path d="M-48.79 357.82L-38.41 542.3" stroke="rgba(130, 141, 248, 1)" stroke-width="1.5"></path><path d="M-48.79 357.82L59.42 518.57" stroke="rgba(130, 141, 248, 1)" stroke-width="1.5"></path><path d="M-38.41 542.3L-38.41 542.3" stroke="rgba(130, 141, 248, 1)" stroke-width="1.5"></path><path d="M-38.41 542.3L59.42 518.57" stroke="rgba(130, 141, 248, 1)" stroke-width="1.5"></path><path d="M-38.41 542.3L-49.5 655.06" stroke="rgba(130, 141, 248, 1)" stroke-width="1.5"></path><path d="M-38.41 542.3L66.92 692.68" stroke="rgba(130, 141, 248, 1)" stroke-width="1.5"></path><path d="M-38.41 542.3L202.59 675.84" stroke="rgba(130, 141, 248, 1)" stroke-width="1.5"></path><path d="M-38.41 542.3L242.69 499.29" stroke="rgba(130, 141, 248, 1)" stroke-width="1.5"></path><path d="M-49.5 655.06L-49.5 655.06" stroke="rgba(130, 141, 248, 1)" stroke-width="1.5"></path><path d="M-49.5 655.06L66.92 692.68" stroke="rgba(130, 141, 248, 1)" stroke-width="1.5"></path><path d="M-49.5 655.06L59.42 518.57" stroke="rgba(130, 141, 248, 1)" stroke-width="1.5"></path><path d="M59.42 518.57L59.42 518.57" stroke="rgba(130, 141, 248, 1)" stroke-width="1.5"></path><path d="M59.42 518.57L66.92 692.68" stroke="rgba(130, 141, 248, 1)" stroke-width="1.5"></path><path d="M66.92 692.68L66.92 692.68" stroke="rgba(130, 141, 248, 1)" stroke-width="1.5"></path><path d="M66.92 692.68L202.59 675.84" stroke="rgba(130, 141, 248, 1)" stroke-width="1.5"></path><path d="M262.42 339.87L262.42 339.87" stroke="rgba(130, 141, 248, 1)" stroke-width="1.5"></path><path d="M262.42 339.87L356.65 396.93" stroke="rgba(130, 141, 248, 1)" stroke-width="1.5"></path><path d="M262.42 339.87L242.69 499.29" stroke="rgba(130, 141, 248, 1)" stroke-width="1.5"></path><path d="M242.69 499.29L242.69 499.29" stroke="rgba(130, 141, 248, 1)" stroke-width="1.5"></path><path d="M242.69 499.29L342.18 527.52" stroke="rgba(130, 141, 248, 1)" stroke-width="1.5"></path><path d="M242.69 499.29L356.65 396.93" stroke="rgba(130, 141, 248, 1)" stroke-width="1.5"></path><path d="M202.59 675.84L202.59 675.84" stroke="rgba(130, 141, 248, 1)" stroke-width="1.5"></path><path d="M202.59 675.84L350.39 698.47" stroke="rgba(130, 141, 248, 1)" stroke-width="1.5"></path><path d="M202.59 675.84L242.69 499.29" stroke="rgba(130, 141, 248, 1)" stroke-width="1.5"></path><path d="M202.59 675.84L342.18 527.52" stroke="rgba(130, 141, 248, 1)" stroke-width="1.5"></path><path d="M356.65 396.93L356.65 396.93" stroke="rgba(130, 141, 248, 1)" stroke-width="1.5"></path><path d="M356.65 396.93L342.18 527.52" stroke="rgba(130, 141, 248, 1)" stroke-width="1.5"></path><path d="M342.18 527.52L342.18 527.52" stroke="rgba(130, 141, 248, 1)" stroke-width="1.5"></path><path d="M350.39 698.47L350.39 698.47" stroke="rgba(130, 141, 248, 1)" stroke-width="1.5"></path><path d="M350.39 698.47L342.18 527.52" stroke="rgba(130, 141, 248, 1)" stroke-width="1.5"></path><path d="M560 405.76L560 405.76" stroke="rgba(130, 141, 248, 1)" stroke-width="1.5"></path><path d="M560 405.76L642.86 344.04" stroke="rgba(130, 141, 248, 1)" stroke-width="1.5"></path><path d="M560 405.76L524.11 535.03" stroke="rgba(130, 141, 248, 1)" stroke-width="1.5"></path><path d="M560 405.76L666.09 543.89" stroke="rgba(130, 141, 248, 1)" stroke-width="1.5"></path><path d="M560 405.76L356.65 396.93" stroke="rgba(130, 141, 248, 1)" stroke-width="1.5"></path><path d="M560 405.76L697.93 232.87" stroke="rgba(130, 141, 248, 1)" stroke-width="1.5"></path><path d="M560 405.76L791.29 376.32" stroke="rgba(130, 141, 248, 1)" stroke-width="1.5"></path><path d="M524.11 535.03L524.11 535.03" stroke="rgba(130, 141, 248, 1)" stroke-width="1.5"></path><path d="M524.11 535.03L666.09 543.89" stroke="rgba(130, 141, 248, 1)" stroke-width="1.5"></path><path d="M524.11 535.03L548.28 685.33" stroke="rgba(130, 141, 248, 1)" stroke-width="1.5"></path><path d="M524.11 535.03L342.18 527.52" stroke="rgba(130, 141, 248, 1)" stroke-width="1.5"></path><path d="M524.11 535.03L666.64 698.19" stroke="rgba(130, 141, 248, 1)" stroke-width="1.5"></path><path d="M548.28 685.33L548.28 685.33" stroke="rgba(130, 141, 248, 1)" stroke-width="1.5"></path><path d="M548.28 685.33L666.64 698.19" stroke="rgba(130, 141, 248, 1)" stroke-width="1.5"></path><path d="M548.28 685.33L666.09 543.89" stroke="rgba(130, 141, 248, 1)" stroke-width="1.5"></path><path d="M548.28 685.33L350.39 698.47" stroke="rgba(130, 141, 248, 1)" stroke-width="1.5"></path><path d="M548.28 685.33L342.18 527.52" stroke="rgba(130, 141, 248, 1)" stroke-width="1.5"></path><path d="M697.93 232.87L697.93 232.87" stroke="rgba(130, 141, 248, 1)" stroke-width="1.5"></path><path d="M697.93 232.87L807.17 199.41" stroke="rgba(130, 141, 248, 1)" stroke-width="1.5"></path><path d="M697.93 232.87L642.86 344.04" stroke="rgba(130, 141, 248, 1)" stroke-width="1.5"></path><path d="M697.93 232.87L791.29 376.32" stroke="rgba(130, 141, 248, 1)" stroke-width="1.5"></path><path d="M642.86 344.04L642.86 344.04" stroke="rgba(130, 141, 248, 1)" stroke-width="1.5"></path><path d="M642.86 344.04L791.29 376.32" stroke="rgba(130, 141, 248, 1)" stroke-width="1.5"></path><path d="M666.09 543.89L666.09 543.89" stroke="rgba(130, 141, 248, 1)" stroke-width="1.5"></path><path d="M666.09 543.89L666.64 698.19" stroke="rgba(130, 141, 248, 1)" stroke-width="1.5"></path><path d="M666.09 543.89L828.96 495.77" stroke="rgba(130, 141, 248, 1)" stroke-width="1.5"></path><path d="M666.64 698.19L666.64 698.19" stroke="rgba(130, 141, 248, 1)" stroke-width="1.5"></path><path d="M666.64 698.19L820.7 668.36" stroke="rgba(130, 141, 248, 1)" stroke-width="1.5"></path><path d="M666.64 698.19L828.96 495.77" stroke="rgba(130, 141, 248, 1)" stroke-width="1.5"></path><path d="M666.64 698.19L937.6 669.71" stroke="rgba(130, 141, 248, 1)" stroke-width="1.5"></path><path d="M807.17 199.41L807.17 199.41" stroke="rgba(130, 141, 248, 1)" stroke-width="1.5"></path><path d="M807.17 199.41L791.29 376.32" stroke="rgba(130, 141, 248, 1)" stroke-width="1.5"></path><path d="M807.17 199.41L944.91 343.05" stroke="rgba(130, 141, 248, 1)" stroke-width="1.5"></path><path d="M807.17 199.41L642.86 344.04" stroke="rgba(130, 141, 248, 1)" stroke-width="1.5"></path><path d="M791.29 376.32L791.29 376.32" stroke="rgba(130, 141, 248, 1)" stroke-width="1.5"></path><path d="M791.29 376.32L828.96 495.77" stroke="rgba(130, 141, 248, 1)" stroke-width="1.5"></path><path d="M791.29 376.32L944.91 343.05" stroke="rgba(130, 141, 248, 1)" stroke-width="1.5"></path><path d="M828.96 495.77L828.96 495.77" stroke="rgba(130, 141, 248, 1)" stroke-width="1.5"></path><path d="M828.96 495.77L971.64 512.35" stroke="rgba(130, 141, 248, 1)" stroke-width="1.5"></path><path d="M820.7 668.36L820.7 668.36" stroke="rgba(130, 141, 248, 1)" stroke-width="1.5"></path><path d="M820.7 668.36L937.6 669.71" stroke="rgba(130, 141, 248, 1)" stroke-width="1.5"></path><path d="M937.51 -69.85L937.51 -69.85" stroke="rgba(130, 141, 248, 1)" stroke-width="1.5"></path><path d="M937.51 -69.85L1109.31 -83.97" stroke="rgba(130, 141, 248, 1)" stroke-width="1.5"></path><path d="M937.51 -69.85L1004.2 101.76" stroke="rgba(130, 141, 248, 1)" stroke-width="1.5"></path><path d="M937.51 -69.85L1132.77 110.32" stroke="rgba(130, 141, 248, 1)" stroke-width="1.5"></path><path d="M937.51 -69.85L807.17 199.41" stroke="rgba(130, 141, 248, 1)" stroke-width="1.5"></path><path d="M937.51 -69.85L1246.63 68.28" stroke="rgba(130, 141, 248, 1)" stroke-width="1.5"></path><path d="M1004.2 101.76L1004.2 101.76" stroke="rgba(130, 141, 248, 1)" stroke-width="1.5"></path><path d="M1004.2 101.76L1132.77 110.32" stroke="rgba(130, 141, 248, 1)" stroke-width="1.5"></path><path d="M1004.2 101.76L1146.38 249" stroke="rgba(130, 141, 248, 1)" stroke-width="1.5"></path><path d="M1004.2 101.76L1109.31 -83.97" stroke="rgba(130, 141, 248, 1)" stroke-width="1.5"></path><path d="M1004.2 101.76L807.17 199.41" stroke="rgba(130, 141, 248, 1)" stroke-width="1.5"></path><path d="M944.91 343.05L944.91 343.05" stroke="rgba(130, 141, 248, 1)" stroke-width="1.5"></path><path d="M944.91 343.05L971.64 512.35" stroke="rgba(130, 141, 248, 1)" stroke-width="1.5"></path><path d="M944.91 343.05L1123.37 380.49" stroke="rgba(130, 141, 248, 1)" stroke-width="1.5"></path><path d="M944.91 343.05L828.96 495.77" stroke="rgba(130, 141, 248, 1)" stroke-width="1.5"></path><path d="M944.91 343.05L1146.38 249" stroke="rgba(130, 141, 248, 1)" stroke-width="1.5"></path><path d="M971.64 512.35L971.64 512.35" stroke="rgba(130, 141, 248, 1)" stroke-width="1.5"></path><path d="M971.64 512.35L1095.92 518.39" stroke="rgba(130, 141, 248, 1)" stroke-width="1.5"></path><path d="M937.6 669.71L937.6 669.71" stroke="rgba(130, 141, 248, 1)" stroke-width="1.5"></path><path d="M937.6 669.71L971.64 512.35" stroke="rgba(130, 141, 248, 1)" stroke-width="1.5"></path><path d="M937.6 669.71L1126.15 652.22" stroke="rgba(130, 141, 248, 1)" stroke-width="1.5"></path><path d="M1109.31 -83.97L1109.31 -83.97" stroke="rgba(130, 141, 248, 1)" stroke-width="1.5"></path><path d="M1109.31 -83.97L1132.77 110.32" stroke="rgba(130, 141, 248, 1)" stroke-width="1.5"></path><path d="M1109.31 -83.97L1246.63 68.28" stroke="rgba(130, 141, 248, 1)" stroke-width="1.5"></path><path d="M1132.77 110.32L1132.77 110.32" stroke="rgba(130, 141, 248, 1)" stroke-width="1.5"></path><path d="M1132.77 110.32L1246.63 68.28" stroke="rgba(130, 141, 248, 1)" stroke-width="1.5"></path><path d="M1132.77 110.32L1146.38 249" stroke="rgba(130, 141, 248, 1)" stroke-width="1.5"></path><path d="M1146.38 249L1146.38 249" stroke="rgba(130, 141, 248, 1)" stroke-width="1.5"></path><path d="M1146.38 249L1266 248.39" stroke="rgba(130, 141, 248, 1)" stroke-width="1.5"></path><path d="M1146.38 249L1123.37 380.49" stroke="rgba(130, 141, 248, 1)" stroke-width="1.5"></path><path d="M1146.38 249L1282.87 398.13" stroke="rgba(130, 141, 248, 1)" stroke-width="1.5"></path><path d="M1146.38 249L1246.63 68.28" stroke="rgba(130, 141, 248, 1)" stroke-width="1.5"></path><path d="M1123.37 380.49L1123.37 380.49" stroke="rgba(130, 141, 248, 1)" stroke-width="1.5"></path><path d="M1095.92 518.39L1095.92 518.39" stroke="rgba(130, 141, 248, 1)" stroke-width="1.5"></path><path d="M1095.92 518.39L1126.15 652.22" stroke="rgba(130, 141, 248, 1)" stroke-width="1.5"></path><path d="M1126.15 652.22L1126.15 652.22" stroke="rgba(130, 141, 248, 1)" stroke-width="1.5"></path><path d="M1126.15 652.22L1306.46 695.12" stroke="rgba(130, 141, 248, 1)" stroke-width="1.5"></path><path d="M1246.63 68.28L1246.63 68.28" stroke="rgba(130, 141, 248, 1)" stroke-width="1.5"></path><path d="M1246.63 68.28L1395.71 78.53" stroke="rgba(130, 141, 248, 1)" stroke-width="1.5"></path><path d="M1246.63 68.28L1266 248.39" stroke="rgba(130, 141, 248, 1)" stroke-width="1.5"></path><path d="M1266 248.39L1266 248.39" stroke="rgba(130, 141, 248, 1)" stroke-width="1.5"></path><path d="M1266 248.39L1282.87 398.13" stroke="rgba(130, 141, 248, 1)" stroke-width="1.5"></path><path d="M1282.87 398.13L1282.87 398.13" stroke="rgba(130, 141, 248, 1)" stroke-width="1.5"></path><path d="M1282.87 398.13L1397.32 401.6" stroke="rgba(130, 141, 248, 1)" stroke-width="1.5"></path><path d="M1282.87 398.13L1306.54 546.16" stroke="rgba(130, 141, 248, 1)" stroke-width="1.5"></path><path d="M1282.87 398.13L1123.37 380.49" stroke="rgba(130, 141, 248, 1)" stroke-width="1.5"></path><path d="M1306.54 546.16L1306.54 546.16" stroke="rgba(130, 141, 248, 1)" stroke-width="1.5"></path><path d="M1306.54 546.16L1438.68 549.71" stroke="rgba(130, 141, 248, 1)" stroke-width="1.5"></path><path d="M1306.54 546.16L1306.46 695.12" stroke="rgba(130, 141, 248, 1)" stroke-width="1.5"></path><path d="M1306.54 546.16L1390.18 681.74" stroke="rgba(130, 141, 248, 1)" stroke-width="1.5"></path><path d="M1306.46 695.12L1306.46 695.12" stroke="rgba(130, 141, 248, 1)" stroke-width="1.5"></path><path d="M1306.46 695.12L1390.18 681.74" stroke="rgba(130, 141, 248, 1)" stroke-width="1.5"></path><path d="M1446.97 -103.64L1446.97 -103.64" stroke="rgba(130, 141, 248, 1)" stroke-width="1.5"></path><path d="M1446.97 -103.64L1595.83 -74.49" stroke="rgba(130, 141, 248, 1)" stroke-width="1.5"></path><path d="M1446.97 -103.64L1567.29 39.93" stroke="rgba(130, 141, 248, 1)" stroke-width="1.5"></path><path d="M1446.97 -103.64L1395.71 78.53" stroke="rgba(130, 141, 248, 1)" stroke-width="1.5"></path><path d="M1446.97 -103.64L1246.63 68.28" stroke="rgba(130, 141, 248, 1)" stroke-width="1.5"></path><path d="M1446.97 -103.64L1419.37 188.96" stroke="rgba(130, 141, 248, 1)" stroke-width="1.5"></path><path d="M1446.97 -103.64L1109.31 -83.97" stroke="rgba(130, 141, 248, 1)" stroke-width="1.5"></path><path d="M1395.71 78.53L1395.71 78.53" stroke="rgba(130, 141, 248, 1)" stroke-width="1.5"></path><path d="M1395.71 78.53L1419.37 188.96" stroke="rgba(130, 141, 248, 1)" stroke-width="1.5"></path><path d="M1395.71 78.53L1567.29 39.93" stroke="rgba(130, 141, 248, 1)" stroke-width="1.5"></path><path d="M1419.37 188.96L1419.37 188.96" stroke="rgba(130, 141, 248, 1)" stroke-width="1.5"></path><path d="M1419.37 188.96L1543.15 225.24" stroke="rgba(130, 141, 248, 1)" stroke-width="1.5"></path><path d="M1419.37 188.96L1266 248.39" stroke="rgba(130, 141, 248, 1)" stroke-width="1.5"></path><path d="M1419.37 188.96L1567.29 39.93" stroke="rgba(130, 141, 248, 1)" stroke-width="1.5"></path><path d="M1419.37 188.96L1246.63 68.28" stroke="rgba(130, 141, 248, 1)" stroke-width="1.5"></path><path d="M1419.37 188.96L1397.32 401.6" stroke="rgba(130, 141, 248, 1)" stroke-width="1.5"></path><path d="M1397.32 401.6L1397.32 401.6" stroke="rgba(130, 141, 248, 1)" stroke-width="1.5"></path><path d="M1397.32 401.6L1438.68 549.71" stroke="rgba(130, 141, 248, 1)" stroke-width="1.5"></path><path d="M1397.32 401.6L1306.54 546.16" stroke="rgba(130, 141, 248, 1)" stroke-width="1.5"></path><path d="M1397.32 401.6L1591.64 383.14" stroke="rgba(130, 141, 248, 1)" stroke-width="1.5"></path><path d="M1397.32 401.6L1266 248.39" stroke="rgba(130, 141, 248, 1)" stroke-width="1.5"></path><path d="M1438.68 549.71L1438.68 549.71" stroke="rgba(130, 141, 248, 1)" stroke-width="1.5"></path><path d="M1438.68 549.71L1390.18 681.74" stroke="rgba(130, 141, 248, 1)" stroke-width="1.5"></path><path d="M1438.68 549.71L1583.83 525.8" stroke="rgba(130, 141, 248, 1)" stroke-width="1.5"></path><path d="M1438.68 549.71L1566.87 663.2" stroke="rgba(130, 141, 248, 1)" stroke-width="1.5"></path><path d="M1438.68 549.71L1306.46 695.12" stroke="rgba(130, 141, 248, 1)" stroke-width="1.5"></path><path d="M1390.18 681.74L1390.18 681.74" stroke="rgba(130, 141, 248, 1)" stroke-width="1.5"></path><path d="M1595.83 -74.49L1595.83 -74.49" stroke="rgba(130, 141, 248, 1)" stroke-width="1.5"></path><path d="M1595.83 -74.49L1567.29 39.93" stroke="rgba(130, 141, 248, 1)" stroke-width="1.5"></path><path d="M1567.29 39.93L1567.29 39.93" stroke="rgba(130, 141, 248, 1)" stroke-width="1.5"></path><path d="M1567.29 39.93L1543.15 225.24" stroke="rgba(130, 141, 248, 1)" stroke-width="1.5"></path><path d="M1543.15 225.24L1543.15 225.24" stroke="rgba(130, 141, 248, 1)" stroke-width="1.5"></path><path d="M1543.15 225.24L1591.64 383.14" stroke="rgba(130, 141, 248, 1)" stroke-width="1.5"></path><path d="M1543.15 225.24L1395.71 78.53" stroke="rgba(130, 141, 248, 1)" stroke-width="1.5"></path><path d="M1591.64 383.14L1591.64 383.14" stroke="rgba(130, 141, 248, 1)" stroke-width="1.5"></path><path d="M1591.64 383.14L1583.83 525.8" stroke="rgba(130, 141, 248, 1)" stroke-width="1.5"></path><path d="M1591.64 383.14L1438.68 549.71" stroke="rgba(130, 141, 248, 1)" stroke-width="1.5"></path><path d="M1591.64 383.14L1419.37 188.96" stroke="rgba(130, 141, 248, 1)" stroke-width="1.5"></path><path d="M1591.64 383.14L1566.87 663.2" stroke="rgba(130, 141, 248, 1)" stroke-width="1.5"></path><path d="M1583.83 525.8L1583.83 525.8" stroke="rgba(130, 141, 248, 1)" stroke-width="1.5"></path><path d="M1583.83 525.8L1566.87 663.2" stroke="rgba(130, 141, 248, 1)" stroke-width="1.5"></path><path d="M1566.87 663.2L1566.87 663.2" stroke="rgba(130, 141, 248, 1)" stroke-width="1.5"></path><path d="M1566.87 663.2L1390.18 681.74" stroke="rgba(130, 141, 248, 1)" stroke-width="1.5"></path><path d="M1566.87 663.2L1306.46 695.12" stroke="rgba(130, 141, 248, 1)" stroke-width="1.5"></path><circle r="5" cx="-48.79" cy="357.82" fill="rgba(130, 141, 248, 1)"></circle><circle r="5" cx="-38.41" cy="542.3" fill="rgba(130, 141, 248, 1)"></circle><circle r="5" cx="-49.5" cy="655.06" fill="rgba(130, 141, 248, 1)"></circle><circle r="5" cx="59.42" cy="518.57" fill="rgba(130, 141, 248, 1)"></circle><circle r="5" cx="66.92" cy="692.68" fill="rgba(130, 141, 248, 1)"></circle><circle r="5" cx="262.42" cy="339.87" fill="rgba(130, 141, 248, 1)"></circle><circle r="5" cx="242.69" cy="499.29" fill="rgba(130, 141, 248, 1)"></circle><circle r="5" cx="202.59" cy="675.84" fill="rgba(130, 141, 248, 1)"></circle><circle r="5" cx="356.65" cy="396.93" fill="rgba(130, 141, 248, 1)"></circle><circle r="5" cx="342.18" cy="527.52" fill="rgba(130, 141, 248, 1)"></circle><circle r="5" cx="350.39" cy="698.47" fill="rgba(130, 141, 248, 1)"></circle><circle r="5" cx="560" cy="405.76" fill="rgba(130, 141, 248, 1)"></circle><circle r="5" cx="524.11" cy="535.03" fill="rgba(130, 141, 248, 1)"></circle><circle r="5" cx="548.28" cy="685.33" fill="rgba(130, 141, 248, 1)"></circle><circle r="5" cx="697.93" cy="232.87" fill="rgba(130, 141, 248, 1)"></circle><circle r="5" cx="642.86" cy="344.04" fill="rgba(130, 141, 248, 1)"></circle><circle r="5" cx="666.09" cy="543.89" fill="rgba(130, 141, 248, 1)"></circle><circle r="5" cx="666.64" cy="698.19" fill="rgba(130, 141, 248, 1)"></circle><circle r="5" cx="807.17" cy="199.41" fill="rgba(130, 141, 248, 1)"></circle><circle r="5" cx="791.29" cy="376.32" fill="rgba(130, 141, 248, 1)"></circle><circle r="5" cx="828.96" cy="495.77" fill="rgba(130, 141, 248, 1)"></circle><circle r="5" cx="820.7" cy="668.36" fill="rgba(130, 141, 248, 1)"></circle><circle r="5" cx="937.51" cy="-69.85" fill="rgba(130, 141, 248, 1)"></circle><circle r="5" cx="1004.2" cy="101.76" fill="rgba(130, 141, 248, 1)"></circle><circle r="5" cx="944.91" cy="343.05" fill="rgba(130, 141, 248, 1)"></circle><circle r="5" cx="971.64" cy="512.35" fill="rgba(130, 141, 248, 1)"></circle><circle r="5" cx="937.6" cy="669.71" fill="rgba(130, 141, 248, 1)"></circle><circle r="5" cx="1109.31" cy="-83.97" fill="rgba(130, 141, 248, 1)"></circle><circle r="5" cx="1132.77" cy="110.32" fill="rgba(130, 141, 248, 1)"></circle><circle r="5" cx="1146.38" cy="249" fill="rgba(130, 141, 248, 1)"></circle><circle r="5" cx="1123.37" cy="380.49" fill="rgba(130, 141, 248, 1)"></circle><circle r="5" cx="1095.92" cy="518.39" fill="rgba(130, 141, 248, 1)"></circle><circle r="5" cx="1126.15" cy="652.22" fill="rgba(130, 141, 248, 1)"></circle><circle r="5" cx="1246.63" cy="68.28" fill="rgba(130, 141, 248, 1)"></circle><circle r="5" cx="1266" cy="248.39" fill="rgba(130, 141, 248, 1)"></circle><circle r="5" cx="1282.87" cy="398.13" fill="rgba(130, 141, 248, 1)"></circle><circle r="5" cx="1306.54" cy="546.16" fill="rgba(130, 141, 248, 1)"></circle><circle r="5" cx="1306.46" cy="695.12" fill="rgba(130, 141, 248, 1)"></circle><circle r="5" cx="1446.97" cy="-103.64" fill="rgba(130, 141, 248, 1)"></circle><circle r="5" cx="1395.71" cy="78.53" fill="rgba(130, 141, 248, 1)"></circle><circle r="5" cx="1419.37" cy="188.96" fill="rgba(130, 141, 248, 1)"></circle><circle r="5" cx="1397.32" cy="401.6" fill="rgba(130, 141, 248, 1)"></circle><circle r="5" cx="1438.68" cy="549.71" fill="rgba(130, 141, 248, 1)"></circle><circle r="5" cx="1390.18" cy="681.74" fill="rgba(130, 141, 248, 1)"></circle><circle r="5" cx="1595.83" cy="-74.49" fill="rgba(130, 141, 248, 1)"></circle><circle r="5" cx="1567.29" cy="39.93" fill="rgba(130, 141, 248, 1)"></circle><circle r="5" cx="1543.15" cy="225.24" fill="rgba(130, 141, 248, 1)"></circle><circle r="5" cx="1591.64" cy="383.14" fill="rgba(130, 141, 248, 1)"></circle><circle r="5" cx="1583.83" cy="525.8" fill="rgba(130, 141, 248, 1)"></circle><circle r="5" cx="1566.87" cy="663.2" fill="rgba(130, 141, 248, 1)"></circle><path d="M205.15 676.47L205.15 676.47" stroke="hsl(198.10000000000002, 93.1%, 78.3%)" stroke-width="1.5"></path><path d="M205.15 676.47L79.09 674.94" stroke="hsl(198.10000000000002, 93.1%, 78.3%)" stroke-width="1.5"></path><path d="M205.15 676.47L340.34 679.79" stroke="hsl(198.10000000000002, 93.1%, 78.3%)" stroke-width="1.5"></path><path d="M205.15 676.47L257.97 537.63" stroke="hsl(198.10000000000002, 93.1%, 78.3%)" stroke-width="1.5"></path><path d="M205.15 676.47L74.47 541.34" stroke="hsl(198.10000000000002, 93.1%, 78.3%)" stroke-width="1.5"></path><path d="M205.15 676.47L369.25 557.56" stroke="hsl(198.10000000000002, 93.1%, 78.3%)" stroke-width="1.5"></path><path d="M704.6 690.43L704.6 690.43" stroke="hsl(198.10000000000002, 93.1%, 78.3%)" stroke-width="1.5"></path><path d="M704.6 690.43L798.65 659.02" stroke="hsl(198.10000000000002, 93.1%, 78.3%)" stroke-width="1.5"></path><path d="M704.6 690.43L556.45 637.87" stroke="hsl(198.10000000000002, 93.1%, 78.3%)" stroke-width="1.5"></path><path d="M1155.26 55.68L1155.26 55.68" stroke="hsl(198.10000000000002, 93.1%, 78.3%)" stroke-width="1.5"></path><path d="M1155.26 55.68L1284.11 83.33" stroke="hsl(198.10000000000002, 93.1%, 78.3%)" stroke-width="1.5"></path><path d="M1155.26 55.68L1117.75 242.06" stroke="hsl(198.10000000000002, 93.1%, 78.3%)" stroke-width="1.5"></path><path d="M1155.26 55.68L1309.17 237.7" stroke="hsl(198.10000000000002, 93.1%, 78.3%)" stroke-width="1.5"></path><path d="M1155.26 55.68L1441.76 76.94" stroke="hsl(198.10000000000002, 93.1%, 78.3%)" stroke-width="1.5"></path><path d="M1159.85 348.63L1159.85 348.63" stroke="hsl(198.10000000000002, 93.1%, 78.3%)" stroke-width="1.5"></path><path d="M1159.85 348.63L1117.75 242.06" stroke="hsl(198.10000000000002, 93.1%, 78.3%)" stroke-width="1.5"></path><path d="M1159.85 348.63L1290.77 358.67" stroke="hsl(198.10000000000002, 93.1%, 78.3%)" stroke-width="1.5"></path><path d="M1104.76 666.17L1104.76 666.17" stroke="hsl(198.10000000000002, 93.1%, 78.3%)" stroke-width="1.5"></path><path d="M1104.76 666.17L1111.25 553.01" stroke="hsl(198.10000000000002, 93.1%, 78.3%)" stroke-width="1.5"></path><path d="M1104.76 666.17L972.94 667.81" stroke="hsl(198.10000000000002, 93.1%, 78.3%)" stroke-width="1.5"></path><path d="M1104.76 666.17L1251.19 711.49" stroke="hsl(198.10000000000002, 93.1%, 78.3%)" stroke-width="1.5"></path><path d="M1104.76 666.17L996.99 546.95" stroke="hsl(198.10000000000002, 93.1%, 78.3%)" stroke-width="1.5"></path><path d="M1251.19 711.49L1251.19 711.49" stroke="hsl(198.10000000000002, 93.1%, 78.3%)" stroke-width="1.5"></path><path d="M1251.19 711.49L1304.22 541.32" stroke="hsl(198.10000000000002, 93.1%, 78.3%)" stroke-width="1.5"></path><path d="M1251.19 711.49L1432.52 638.97" stroke="hsl(198.10000000000002, 93.1%, 78.3%)" stroke-width="1.5"></path><path d="M1441.11 -39.26L1441.11 -39.26" stroke="hsl(198.10000000000002, 93.1%, 78.3%)" stroke-width="1.5"></path><path d="M1441.11 -39.26L1441.76 76.94" stroke="hsl(198.10000000000002, 93.1%, 78.3%)" stroke-width="1.5"></path><path d="M1441.11 -39.26L1604.86 -38.65" stroke="hsl(198.10000000000002, 93.1%, 78.3%)" stroke-width="1.5"></path><path d="M1604.86 -38.65L1604.86 -38.65" stroke="hsl(198.10000000000002, 93.1%, 78.3%)" stroke-width="1.5"></path><path d="M1604.86 -38.65L1603.88 96.81" stroke="hsl(198.10000000000002, 93.1%, 78.3%)" stroke-width="1.5"></path><path d="M1604.86 -38.65L1441.76 76.94" stroke="hsl(198.10000000000002, 93.1%, 78.3%)" stroke-width="1.5"></path><path d="M1604.86 -38.65L1557.18 231.61" stroke="hsl(198.10000000000002, 93.1%, 78.3%)" stroke-width="1.5"></path><path d="M1604.86 -38.65L1454.07 196.03" stroke="hsl(198.10000000000002, 93.1%, 78.3%)" stroke-width="1.5"></path><path d="M1604.86 -38.65L1284.11 83.33" stroke="hsl(198.10000000000002, 93.1%, 78.3%)" stroke-width="1.5"></path><path d="M1540.8 347.35L1540.8 347.35" stroke="hsl(198.10000000000002, 93.1%, 78.3%)" stroke-width="1.5"></path><path d="M1540.8 347.35L1557.18 231.61" stroke="hsl(198.10000000000002, 93.1%, 78.3%)" stroke-width="1.5"></path><path d="M1540.8 347.35L1435.09 402.5" stroke="hsl(198.10000000000002, 93.1%, 78.3%)" stroke-width="1.5"></path><path d="M1540.8 347.35L1454.07 196.03" stroke="hsl(198.10000000000002, 93.1%, 78.3%)" stroke-width="1.5"></path><path d="M1540.8 347.35L1602.38 531.85" stroke="hsl(198.10000000000002, 93.1%, 78.3%)" stroke-width="1.5"></path><path d="M1540.8 347.35L1438.36 528.68" stroke="hsl(198.10000000000002, 93.1%, 78.3%)" stroke-width="1.5"></path><path d="M1540.8 347.35L1290.77 358.67" stroke="hsl(198.10000000000002, 93.1%, 78.3%)" stroke-width="1.5"></path><path d="M-68.14 544.27L-68.14 544.27" stroke="hsl(198.10000000000002, 93.1%, 78.3%)" stroke-width="1.5"></path><path d="M-68.14 544.27L74.47 541.34" stroke="hsl(198.10000000000002, 93.1%, 78.3%)" stroke-width="1.5"></path><path d="M-68.14 544.27L79.09 674.94" stroke="hsl(198.10000000000002, 93.1%, 78.3%)" stroke-width="1.5"></path><path d="M-68.14 544.27L205.15 676.47" stroke="hsl(198.10000000000002, 93.1%, 78.3%)" stroke-width="1.5"></path><path d="M-68.14 544.27L257.97 537.63" stroke="hsl(198.10000000000002, 93.1%, 78.3%)" stroke-width="1.5"></path><path d="M74.47 541.34L74.47 541.34" stroke="hsl(198.10000000000002, 93.1%, 78.3%)" stroke-width="1.5"></path><path d="M74.47 541.34L79.09 674.94" stroke="hsl(198.10000000000002, 93.1%, 78.3%)" stroke-width="1.5"></path><path d="M74.47 541.34L257.97 537.63" stroke="hsl(198.10000000000002, 93.1%, 78.3%)" stroke-width="1.5"></path><path d="M79.09 674.94L79.09 674.94" stroke="hsl(198.10000000000002, 93.1%, 78.3%)" stroke-width="1.5"></path><path d="M79.09 674.94L257.97 537.63" stroke="hsl(198.10000000000002, 93.1%, 78.3%)" stroke-width="1.5"></path><path d="M79.09 674.94L340.34 679.79" stroke="hsl(198.10000000000002, 93.1%, 78.3%)" stroke-width="1.5"></path><path d="M79.09 674.94L369.25 557.56" stroke="hsl(198.10000000000002, 93.1%, 78.3%)" stroke-width="1.5"></path><path d="M257.97 537.63L257.97 537.63" stroke="hsl(198.10000000000002, 93.1%, 78.3%)" stroke-width="1.5"></path><path d="M257.97 537.63L369.25 557.56" stroke="hsl(198.10000000000002, 93.1%, 78.3%)" stroke-width="1.5"></path><path d="M257.97 537.63L340.34 679.79" stroke="hsl(198.10000000000002, 93.1%, 78.3%)" stroke-width="1.5"></path><path d="M257.97 537.63L527.23 490.79" stroke="hsl(198.10000000000002, 93.1%, 78.3%)" stroke-width="1.5"></path><path d="M369.25 557.56L369.25 557.56" stroke="hsl(198.10000000000002, 93.1%, 78.3%)" stroke-width="1.5"></path><path d="M369.25 557.56L340.34 679.79" stroke="hsl(198.10000000000002, 93.1%, 78.3%)" stroke-width="1.5"></path><path d="M369.25 557.56L527.23 490.79" stroke="hsl(198.10000000000002, 93.1%, 78.3%)" stroke-width="1.5"></path><path d="M369.25 557.56L556.45 637.87" stroke="hsl(198.10000000000002, 93.1%, 78.3%)" stroke-width="1.5"></path><path d="M369.25 557.56L74.47 541.34" stroke="hsl(198.10000000000002, 93.1%, 78.3%)" stroke-width="1.5"></path><path d="M340.34 679.79L340.34 679.79" stroke="hsl(198.10000000000002, 93.1%, 78.3%)" stroke-width="1.5"></path><path d="M527.23 490.79L527.23 490.79" stroke="hsl(198.10000000000002, 93.1%, 78.3%)" stroke-width="1.5"></path><path d="M527.23 490.79L677.16 489.81" stroke="hsl(198.10000000000002, 93.1%, 78.3%)" stroke-width="1.5"></path><path d="M527.23 490.79L556.45 637.87" stroke="hsl(198.10000000000002, 93.1%, 78.3%)" stroke-width="1.5"></path><path d="M527.23 490.79L711.54 354.15" stroke="hsl(198.10000000000002, 93.1%, 78.3%)" stroke-width="1.5"></path><path d="M556.45 637.87L556.45 637.87" stroke="hsl(198.10000000000002, 93.1%, 78.3%)" stroke-width="1.5"></path><path d="M556.45 637.87L677.16 489.81" stroke="hsl(198.10000000000002, 93.1%, 78.3%)" stroke-width="1.5"></path><path d="M711.54 354.15L711.54 354.15" stroke="hsl(198.10000000000002, 93.1%, 78.3%)" stroke-width="1.5"></path><path d="M711.54 354.15L814.76 395.35" stroke="hsl(198.10000000000002, 93.1%, 78.3%)" stroke-width="1.5"></path><path d="M711.54 354.15L677.16 489.81" stroke="hsl(198.10000000000002, 93.1%, 78.3%)" stroke-width="1.5"></path><path d="M711.54 354.15L852.63 503.94" stroke="hsl(198.10000000000002, 93.1%, 78.3%)" stroke-width="1.5"></path><path d="M677.16 489.81L677.16 489.81" stroke="hsl(198.10000000000002, 93.1%, 78.3%)" stroke-width="1.5"></path><path d="M814.76 395.35L814.76 395.35" stroke="hsl(198.10000000000002, 93.1%, 78.3%)" stroke-width="1.5"></path><path d="M814.76 395.35L852.63 503.94" stroke="hsl(198.10000000000002, 93.1%, 78.3%)" stroke-width="1.5"></path><path d="M814.76 395.35L951.52 399.75" stroke="hsl(198.10000000000002, 93.1%, 78.3%)" stroke-width="1.5"></path><path d="M814.76 395.35L677.16 489.81" stroke="hsl(198.10000000000002, 93.1%, 78.3%)" stroke-width="1.5"></path><path d="M814.76 395.35L996.99 546.95" stroke="hsl(198.10000000000002, 93.1%, 78.3%)" stroke-width="1.5"></path><path d="M852.63 503.94L852.63 503.94" stroke="hsl(198.10000000000002, 93.1%, 78.3%)" stroke-width="1.5"></path><path d="M852.63 503.94L951.52 399.75" stroke="hsl(198.10000000000002, 93.1%, 78.3%)" stroke-width="1.5"></path><path d="M798.65 659.02L798.65 659.02" stroke="hsl(198.10000000000002, 93.1%, 78.3%)" stroke-width="1.5"></path><path d="M798.65 659.02L852.63 503.94" stroke="hsl(198.10000000000002, 93.1%, 78.3%)" stroke-width="1.5"></path><path d="M798.65 659.02L972.94 667.81" stroke="hsl(198.10000000000002, 93.1%, 78.3%)" stroke-width="1.5"></path><path d="M798.65 659.02L677.16 489.81" stroke="hsl(198.10000000000002, 93.1%, 78.3%)" stroke-width="1.5"></path><path d="M951.52 399.75L951.52 399.75" stroke="hsl(198.10000000000002, 93.1%, 78.3%)" stroke-width="1.5"></path><path d="M951.52 399.75L996.99 546.95" stroke="hsl(198.10000000000002, 93.1%, 78.3%)" stroke-width="1.5"></path><path d="M951.52 399.75L1159.85 348.63" stroke="hsl(198.10000000000002, 93.1%, 78.3%)" stroke-width="1.5"></path><path d="M951.52 399.75L1111.25 553.01" stroke="hsl(198.10000000000002, 93.1%, 78.3%)" stroke-width="1.5"></path><path d="M951.52 399.75L1117.75 242.06" stroke="hsl(198.10000000000002, 93.1%, 78.3%)" stroke-width="1.5"></path><path d="M996.99 546.95L996.99 546.95" stroke="hsl(198.10000000000002, 93.1%, 78.3%)" stroke-width="1.5"></path><path d="M996.99 546.95L1111.25 553.01" stroke="hsl(198.10000000000002, 93.1%, 78.3%)" stroke-width="1.5"></path><path d="M996.99 546.95L972.94 667.81" stroke="hsl(198.10000000000002, 93.1%, 78.3%)" stroke-width="1.5"></path><path d="M996.99 546.95L852.63 503.94" stroke="hsl(198.10000000000002, 93.1%, 78.3%)" stroke-width="1.5"></path><path d="M972.94 667.81L972.94 667.81" stroke="hsl(198.10000000000002, 93.1%, 78.3%)" stroke-width="1.5"></path><path d="M972.94 667.81L1111.25 553.01" stroke="hsl(198.10000000000002, 93.1%, 78.3%)" stroke-width="1.5"></path><path d="M1117.75 242.06L1117.75 242.06" stroke="hsl(198.10000000000002, 93.1%, 78.3%)" stroke-width="1.5"></path><path d="M1117.75 242.06L1309.17 237.7" stroke="hsl(198.10000000000002, 93.1%, 78.3%)" stroke-width="1.5"></path><path d="M1117.75 242.06L1290.77 358.67" stroke="hsl(198.10000000000002, 93.1%, 78.3%)" stroke-width="1.5"></path><path d="M1111.25 553.01L1111.25 553.01" stroke="hsl(198.10000000000002, 93.1%, 78.3%)" stroke-width="1.5"></path><path d="M1284.11 83.33L1284.11 83.33" stroke="hsl(198.10000000000002, 93.1%, 78.3%)" stroke-width="1.5"></path><path d="M1284.11 83.33L1309.17 237.7" stroke="hsl(198.10000000000002, 93.1%, 78.3%)" stroke-width="1.5"></path><path d="M1284.11 83.33L1441.76 76.94" stroke="hsl(198.10000000000002, 93.1%, 78.3%)" stroke-width="1.5"></path><path d="M1284.11 83.33L1441.11 -39.26" stroke="hsl(198.10000000000002, 93.1%, 78.3%)" stroke-width="1.5"></path><path d="M1284.11 83.33L1454.07 196.03" stroke="hsl(198.10000000000002, 93.1%, 78.3%)" stroke-width="1.5"></path><path d="M1284.11 83.33L1117.75 242.06" stroke="hsl(198.10000000000002, 93.1%, 78.3%)" stroke-width="1.5"></path><path d="M1309.17 237.7L1309.17 237.7" stroke="hsl(198.10000000000002, 93.1%, 78.3%)" stroke-width="1.5"></path><path d="M1309.17 237.7L1290.77 358.67" stroke="hsl(198.10000000000002, 93.1%, 78.3%)" stroke-width="1.5"></path><path d="M1309.17 237.7L1454.07 196.03" stroke="hsl(198.10000000000002, 93.1%, 78.3%)" stroke-width="1.5"></path><path d="M1290.77 358.67L1290.77 358.67" stroke="hsl(198.10000000000002, 93.1%, 78.3%)" stroke-width="1.5"></path><path d="M1290.77 358.67L1435.09 402.5" stroke="hsl(198.10000000000002, 93.1%, 78.3%)" stroke-width="1.5"></path><path d="M1290.77 358.67L1304.22 541.32" stroke="hsl(198.10000000000002, 93.1%, 78.3%)" stroke-width="1.5"></path><path d="M1304.22 541.32L1304.22 541.32" stroke="hsl(198.10000000000002, 93.1%, 78.3%)" stroke-width="1.5"></path><path d="M1304.22 541.32L1438.36 528.68" stroke="hsl(198.10000000000002, 93.1%, 78.3%)" stroke-width="1.5"></path><path d="M1304.22 541.32L1432.52 638.97" stroke="hsl(198.10000000000002, 93.1%, 78.3%)" stroke-width="1.5"></path><path d="M1441.76 76.94L1441.76 76.94" stroke="hsl(198.10000000000002, 93.1%, 78.3%)" stroke-width="1.5"></path><path d="M1441.76 76.94L1454.07 196.03" stroke="hsl(198.10000000000002, 93.1%, 78.3%)" stroke-width="1.5"></path><path d="M1441.76 76.94L1603.88 96.81" stroke="hsl(198.10000000000002, 93.1%, 78.3%)" stroke-width="1.5"></path><path d="M1441.76 76.94L1557.18 231.61" stroke="hsl(198.10000000000002, 93.1%, 78.3%)" stroke-width="1.5"></path><path d="M1454.07 196.03L1454.07 196.03" stroke="hsl(198.10000000000002, 93.1%, 78.3%)" stroke-width="1.5"></path><path d="M1454.07 196.03L1557.18 231.61" stroke="hsl(198.10000000000002, 93.1%, 78.3%)" stroke-width="1.5"></path><path d="M1435.09 402.5L1435.09 402.5" stroke="hsl(198.10000000000002, 93.1%, 78.3%)" stroke-width="1.5"></path><path d="M1435.09 402.5L1438.36 528.68" stroke="hsl(198.10000000000002, 93.1%, 78.3%)" stroke-width="1.5"></path><path d="M1435.09 402.5L1304.22 541.32" stroke="hsl(198.10000000000002, 93.1%, 78.3%)" stroke-width="1.5"></path><path d="M1435.09 402.5L1454.07 196.03" stroke="hsl(198.10000000000002, 93.1%, 78.3%)" stroke-width="1.5"></path><path d="M1438.36 528.68L1438.36 528.68" stroke="hsl(198.10000000000002, 93.1%, 78.3%)" stroke-width="1.5"></path><path d="M1438.36 528.68L1432.52 638.97" stroke="hsl(198.10000000000002, 93.1%, 78.3%)" stroke-width="1.5"></path><path d="M1438.36 528.68L1602.38 531.85" stroke="hsl(198.10000000000002, 93.1%, 78.3%)" stroke-width="1.5"></path><path d="M1432.52 638.97L1432.52 638.97" stroke="hsl(198.10000000000002, 93.1%, 78.3%)" stroke-width="1.5"></path><path d="M1432.52 638.97L1586.73 685.77" stroke="hsl(198.10000000000002, 93.1%, 78.3%)" stroke-width="1.5"></path><path d="M1603.88 96.81L1603.88 96.81" stroke="hsl(198.10000000000002, 93.1%, 78.3%)" stroke-width="1.5"></path><path d="M1603.88 96.81L1557.18 231.61" stroke="hsl(198.10000000000002, 93.1%, 78.3%)" stroke-width="1.5"></path><path d="M1603.88 96.81L1454.07 196.03" stroke="hsl(198.10000000000002, 93.1%, 78.3%)" stroke-width="1.5"></path><path d="M1557.18 231.61L1557.18 231.61" stroke="hsl(198.10000000000002, 93.1%, 78.3%)" stroke-width="1.5"></path><path d="M1557.18 231.61L1435.09 402.5" stroke="hsl(198.10000000000002, 93.1%, 78.3%)" stroke-width="1.5"></path><path d="M1602.38 531.85L1602.38 531.85" stroke="hsl(198.10000000000002, 93.1%, 78.3%)" stroke-width="1.5"></path><path d="M1602.38 531.85L1586.73 685.77" stroke="hsl(198.10000000000002, 93.1%, 78.3%)" stroke-width="1.5"></path><path d="M1602.38 531.85L1432.52 638.97" stroke="hsl(198.10000000000002, 93.1%, 78.3%)" stroke-width="1.5"></path><path d="M1602.38 531.85L1435.09 402.5" stroke="hsl(198.10000000000002, 93.1%, 78.3%)" stroke-width="1.5"></path><path d="M1602.38 531.85L1304.22 541.32" stroke="hsl(198.10000000000002, 93.1%, 78.3%)" stroke-width="1.5"></path><path d="M1586.73 685.77L1586.73 685.77" stroke="hsl(198.10000000000002, 93.1%, 78.3%)" stroke-width="1.5"></path><circle r="25" cx="205.15" cy="676.47" fill="url(#SvgjsRadialGradient1009)"></circle><circle r="25" cx="704.6" cy="690.43" fill="url(#SvgjsRadialGradient1009)"></circle><circle r="25" cx="1155.26" cy="55.68" fill="url(#SvgjsRadialGradient1009)"></circle><circle r="25" cx="1159.85" cy="348.63" fill="url(#SvgjsRadialGradient1009)"></circle><circle r="25" cx="1104.76" cy="666.17" fill="url(#SvgjsRadialGradient1009)"></circle><circle r="25" cx="1251.19" cy="711.49" fill="url(#SvgjsRadialGradient1009)"></circle><circle r="25" cx="1441.11" cy="-39.26" fill="url(#SvgjsRadialGradient1009)"></circle><circle r="25" cx="1604.86" cy="-38.65" fill="url(#SvgjsRadialGradient1009)"></circle><circle r="25" cx="1540.8" cy="347.35" fill="url(#SvgjsRadialGradient1009)"></circle><circle r="5" cx="-68.14" cy="544.27" fill="#9ddffc"></circle><circle r="5" cx="74.47" cy="541.34" fill="#9ddffc"></circle><circle r="5" cx="79.09" cy="674.94" fill="#9ddffc"></circle><circle r="5" cx="257.97" cy="537.63" fill="#9ddffc"></circle><circle r="5" cx="369.25" cy="557.56" fill="#9ddffc"></circle><circle r="5" cx="340.34" cy="679.79" fill="#9ddffc"></circle><circle r="5" cx="527.23" cy="490.79" fill="#9ddffc"></circle><circle r="5" cx="556.45" cy="637.87" fill="#9ddffc"></circle><circle r="5" cx="711.54" cy="354.15" fill="#9ddffc"></circle><circle r="5" cx="677.16" cy="489.81" fill="#9ddffc"></circle><circle r="5" cx="814.76" cy="395.35" fill="#9ddffc"></circle><circle r="5" cx="852.63" cy="503.94" fill="#9ddffc"></circle><circle r="5" cx="798.65" cy="659.02" fill="#9ddffc"></circle><circle r="5" cx="951.52" cy="399.75" fill="#9ddffc"></circle><circle r="5" cx="996.99" cy="546.95" fill="#9ddffc"></circle><circle r="5" cx="972.94" cy="667.81" fill="#9ddffc"></circle><circle r="5" cx="1117.75" cy="242.06" fill="#9ddffc"></circle><circle r="5" cx="1111.25" cy="553.01" fill="#9ddffc"></circle><circle r="5" cx="1284.11" cy="83.33" fill="#9ddffc"></circle><circle r="5" cx="1309.17" cy="237.7" fill="#9ddffc"></circle><circle r="5" cx="1290.77" cy="358.67" fill="#9ddffc"></circle><circle r="5" cx="1304.22" cy="541.32" fill="#9ddffc"></circle><circle r="5" cx="1441.76" cy="76.94" fill="#9ddffc"></circle><circle r="5" cx="1454.07" cy="196.03" fill="#9ddffc"></circle><circle r="5" cx="1435.09" cy="402.5" fill="#9ddffc"></circle><circle r="5" cx="1438.36" cy="528.68" fill="#9ddffc"></circle><circle r="5" cx="1432.52" cy="638.97" fill="#9ddffc"></circle><circle r="5" cx="1603.88" cy="96.81" fill="#9ddffc"></circle><circle r="5" cx="1557.18" cy="231.61" fill="#9ddffc"></circle><circle r="5" cx="1602.38" cy="531.85" fill="#9ddffc"></circle><circle r="5" cx="1586.73" cy="685.77" fill="#9ddffc"></circle></g><defs><mask id="SvgjsMask1008"><rect width="1440" height="560" fill="#ffffff"></rect></mask><radialGradient id="SvgjsRadialGradient1009"><stop stop-color="#ffffff" offset="0.1"></stop><stop stop-color="rgba(59, 191, 248, 1)" offset="0.2"></stop><stop stop-color="rgba(59, 191, 248, 0)" offset="1"></stop></radialGradient></defs></svg>