<svg xmlns="http://www.w3.org/2000/svg" version="1.1" xmlns:xlink="http://www.w3.org/1999/xlink" xmlns:svgjs="http://svgjs.com/svgjs" width="1440" height="560" preserveAspectRatio="none" viewBox="0 0 1440 560"><g mask="url(&quot;#SvgjsMask1045&quot;)" fill="none"><rect width="1440" height="560" x="0" y="0" fill="rgba(15, 23, 41, 1)"></rect><path d="M0,507.531C92.196,486.514,172.176,442.476,254.757,396.409C343.138,347.107,437.93,308.188,500.268,228.465C573.124,135.291,653.223,25.574,636.254,-91.479C619.286,-208.525,513.017,-293.406,415.013,-359.611C331.278,-416.177,220.438,-394.802,127.728,-435.003C15.511,-483.663,-60.088,-632.722,-181.547,-618.291C-299.477,-604.279,-350.76,-461.019,-426.082,-369.202C-499.21,-280.058,-602.586,-203.088,-616.092,-88.581C-629.531,25.363,-542.657,121.702,-496.364,226.682C-449.352,333.293,-443.623,475.117,-342.214,532.495C-240.611,589.983,-113.819,533.477,0,507.531" fill="#0b111e"></path><path d="M1440 1169.087C1549.444 1144.0810000000001 1629.232 1061.373 1728.4189999999999 1008.789 1839.259 950.027 1987.045 945.867 2057.2110000000002 841.871 2129.116 735.298 2120.983 591.717 2094.7309999999998 465.86400000000003 2069.424 344.541 2001.751 236.63600000000002 1912.932 150.202 1828.8690000000001 68.39699999999999 1717.025 31.903999999999996 1607.003-8.761999999999944 1488.948-52.39700000000005 1369.358-127.05999999999995 1247.448-95.77300000000002 1124.796-64.29499999999996 1056.297 59.99200000000002 971.762 154.269 885.679 250.27300000000002 765.7 332.78499999999997 748.578 460.589 731.482 588.202 832.265 696.028 883.348 814.2139999999999 935.6949999999999 935.323 941.047 1092.348 1052.3 1163.2730000000001 1163.538 1234.1889999999999 1311.394 1198.472 1440 1169.087" fill="#131d35"></path></g><defs><mask id="SvgjsMask1045"><rect width="1440" height="560" fill="#ffffff"></rect></mask></defs></svg>