<svg xmlns="http://www.w3.org/2000/svg" version="1.1" xmlns:xlink="http://www.w3.org/1999/xlink" xmlns:svgjs="http://svgjs.com/svgjs" width="1440" height="300" preserveAspectRatio="none" viewBox="0 0 1440 300"><g mask="url(&quot;#SvgjsMask1040&quot;)" fill="none"><rect width="1440" height="300" x="0" y="0" fill="rgba(15, 23, 41, 1)"></rect><path d="M -925.8814143189531,244 C -829.88,222 -637.88,134.6 -445.88141431895315,134 C -253.88,133.4 -157.88,246.4 34.11858568104685,241 C 226.12,235.6 322.12,110.4 514.1185856810469,107 C 706.12,103.6 808.94,225 994.1185856810469,224 C 1179.29,223 1350.82,126.4 1440,102" stroke="rgba(130, 141, 248, 1)" stroke-width="2"></path><path d="M -333.64437124435267,240 C -237.64,209.6 -45.64,88.4 146.3556287556473,88 C 338.36,87.6 434.36,242.2 626.3556287556473,238 C 818.36,233.8 914.36,77 1106.3556287556473,67 C 1298.36,57 1519.63,172.6 1586.3556287556473,188 C 1653.08,203.4 1469.27,152.8 1440,144" stroke="rgba(130, 141, 248, 1)" stroke-width="2"></path><path d="M -881.8507743392734,56 C -785.85,94.2 -593.85,241.2 -401.8507743392734,247 C -209.85,252.8 -113.85,97 78.14922566072659,85 C 270.15,73 366.15,193.6 558.1492256607266,187 C 750.15,180.4 861.78,38 1038.1492256607266,52 C 1214.52,66 1359.63,216 1440,257" stroke="rgba(130, 141, 248, 1)" stroke-width="2"></path></g><defs><mask id="SvgjsMask1040"><rect width="1440" height="300" fill="#ffffff"></rect></mask></defs></svg>