<svg xmlns="http://www.w3.org/2000/svg" version="1.1" xmlns:xlink="http://www.w3.org/1999/xlink" xmlns:svgjs="http://svgjs.com/svgjs" width="1440" height="1300" preserveAspectRatio="none" viewBox="0 0 1440 1300"><g mask="url(&quot;#SvgjsMask1022&quot;)" fill="none"><rect width="1440" height="1300" x="0" y="0" fill="rgba(15, 23, 41, 1)"></rect><path d="M 647,-894.1689531243645 C 735,-764.17 1077.2,-504.17 1087,-244.16895312436455 C 1096.8,15.83 718.6,145.83 696,405.8310468756355 C 673.4,665.83 1027.2,877 974,1055.8310468756354 C 920.8,1234.66 538.8,1251.17 430,1300" stroke="rgba(130, 141, 248, 1)" stroke-width="2"></path><path d="M 1252,-932.1941225320804 C 1107.2,-802.19 531,-542.19 528,-282.19412253208037 C 525,-22.19 1262.4,107.81 1237,367.80587746791963 C 1211.6,627.81 483.4,831.37 401,1017.8058774679196 C 318.6,1204.24 740.2,1243.56 825,1300" stroke="rgba(130, 141, 248, 1)" stroke-width="2"></path><path d="M 1202,-398.88323192649193 C 1033.2,-268.88 445.4,-8.88 358,251.11676807350807 C 270.6,511.12 776.6,641.12 765,901.1167680735081 C 753.4,1161.12 257.8,1471.34 300,1551.116768073508 C 342.2,1630.89 840.8,1350.22 976,1300" stroke="rgba(130, 141, 248, 1)" stroke-width="2"></path><path d="M 1038,-280.41035108944027 C 924.6,-150.41 518,109.59 471,369.58964891055973 C 424,629.59 865.2,759.59 803,1019.5896489105597 C 740.8,1279.59 110.2,1613.51 160,1669.5896489105598 C 209.8,1725.67 873.6,1373.92 1052,1300" stroke="rgba(130, 141, 248, 1)" stroke-width="2"></path></g><defs><mask id="SvgjsMask1022"><rect width="1440" height="1300" fill="#ffffff"></rect></mask></defs></svg>