<svg xmlns="http://www.w3.org/2000/svg" version="1.1" xmlns:xlink="http://www.w3.org/1999/xlink" xmlns:svgjs="http://svgjs.com/svgjs" width="1440" height="560" preserveAspectRatio="none" viewBox="0 0 1440 560"><g mask="url(&quot;#SvgjsMask1008&quot;)" fill="none"><rect width="1440" height="560" x="0" y="0" fill="rgba(15, 23, 41, 1)"></rect><path d="M -861.9599913134317,84 C -765.96,165.4 -573.96,476.6 -381.9599913134317,491 C -189.96,505.4 -93.96,191.4 98.04000868656829,156 C 290.04,120.6 386.04,322 578.0400086865683,314 C 770.04,306 885.65,97.4 1058.0400086865684,116 C 1230.43,134.6 1363.61,348.8 1440,407" stroke="rgba(130, 141, 248, 1)" stroke-width="2"></path><path d="M -299.238716992685,285 C -203.24,273.2 -11.24,216.2 180.76128300731497,226 C 372.76,235.8 468.76,365 660.761283007315,334 C 852.76,303 948.76,41.6 1140.761283007315,71 C 1332.76,100.4 1560.91,478.4 1620.761283007315,481 C 1680.61,483.6 1476.15,163.4 1440,84" stroke="rgba(130, 141, 248, 1)" stroke-width="2"></path><path d="M -138.17283571511803,155 C -42.17,205.4 149.83,386 341.827164284882,407 C 533.83,428 629.83,266.6 821.827164284882,260 C 1013.83,253.4 1109.83,386.2 1301.827164284882,374 C 1493.83,361.8 1754.19,192.8 1781.827164284882,199 C 1809.46,205.2 1508.37,363.8 1440,405" stroke="rgba(130, 141, 248, 1)" stroke-width="2"></path></g><defs><mask id="SvgjsMask1008"><rect width="1440" height="560" fill="#ffffff"></rect></mask></defs></svg>