<svg xmlns="http://www.w3.org/2000/svg" version="1.1" xmlns:xlink="http://www.w3.org/1999/xlink" xmlns:svgjs="http://svgjs.com/svgjs" width="1440" height="560" preserveAspectRatio="none" viewBox="0 0 1440 560"><g mask="url(&quot;#SvgjsMask1049&quot;)" fill="none"><rect width="1440" height="560" x="0" y="0" fill="rgba(15, 23, 41, 1)"></rect><path d="M -745.1871382060207,335 C -649.19,314.2 -457.19,210.6 -265.1871382060207,231 C -73.19,251.4 22.81,469 214.81286179397932,437 C 406.81,405 502.81,60.4 694.8128617939793,71 C 886.81,81.6 1025.78,491.6 1174.8128617939792,490 C 1323.85,488.4 1386.96,148.4 1440,63" stroke="rgba(130, 141, 248, 1)" stroke-width="2"></path><path d="M -512.1641216157451,175 C -416.16,206.2 -224.16,314.6 -32.1641216157451,331 C 159.84,347.4 255.84,230 447.8358783842549,257 C 639.84,284 735.84,473.6 927.8358783842549,466 C 1119.84,458.4 1305.4,229.8 1407.835878384255,219 C 1510.27,208.2 1433.57,373.4 1440,412" stroke="rgba(130, 141, 248, 1)" stroke-width="2"></path><path d="M -942.6435456720849,83 C -846.64,137 -654.64,354 -462.6435456720849,353 C -270.64,352 -174.64,64.8 17.356454327915117,78 C 209.36,91.2 305.36,398.4 497.3564543279151,419 C 689.36,439.6 788.83,193.6 977.3564543279151,181 C 1165.89,168.4 1347.47,321 1440,356" stroke="rgba(130, 141, 248, 1)" stroke-width="2"></path></g><defs><mask id="SvgjsMask1049"><rect width="1440" height="560" fill="#ffffff"></rect></mask></defs></svg>