<svg xmlns="http://www.w3.org/2000/svg" version="1.1" xmlns:xlink="http://www.w3.org/1999/xlink" xmlns:svgjs="http://svgjs.com/svgjs" width="1440" height="400" preserveAspectRatio="none" viewBox="0 0 1440 400"><g mask="url(&quot;#SvgjsMask1037&quot;)" fill="none"><rect width="1440" height="400" x="0" y="0" fill="rgba(15, 23, 41, 1)"></rect><path d="M -72.16915105689503,210 C 23.83,186.8 215.83,66 407.83084894310497,94 C 599.83,122 695.83,343.8 887.8308489431049,350 C 1079.83,356.2 1175.83,134.8 1367.830848943105,125 C 1559.83,115.2 1833.4,286.4 1847.830848943105,301 C 1862.26,315.6 1521.57,218.6 1440,198" stroke="rgba(130, 141, 248, 1)" stroke-width="2"></path><path d="M -753.1669553380497,323 C -657.17,292 -465.17,165 -273.16695533804966,168 C -81.17,171 14.83,356.6 206.83304466195034,338 C 398.83,319.4 494.83,77.8 686.8330446619503,75 C 878.83,72.2 1016.2,305.4 1166.8330446619502,324 C 1317.47,342.6 1385.37,199.2 1440,168" stroke="rgba(130, 141, 248, 1)" stroke-width="2"></path><path d="M -912.2518841715139,193 C -816.25,197.8 -624.25,237.8 -432.2518841715139,217 C -240.25,196.2 -144.25,90 47.74811582848611,89 C 239.75,88 335.75,210.4 527.7481158284861,212 C 719.75,213.6 825.3,76.4 1007.7481158284861,97 C 1190.2,117.6 1353.55,271.4 1440,315" stroke="rgba(130, 141, 248, 1)" stroke-width="2"></path></g><defs><mask id="SvgjsMask1037"><rect width="1440" height="400" fill="#ffffff"></rect></mask></defs></svg>