<svg xmlns="http://www.w3.org/2000/svg" version="1.1" xmlns:xlink="http://www.w3.org/1999/xlink" xmlns:svgjs="http://svgjs.com/svgjs" width="1440" height="13000" preserveAspectRatio="none" viewBox="0 0 1440 13000"><g mask="url(&quot;#SvgjsMask1011&quot;)" fill="none"><rect width="1440" height="13000" x="0" y="0" fill="rgba(15, 23, 41, 1)"></rect><path d="M 983,-1115.727683752791 C 874.8,-855.73 471.2,-335.73 442,184.272316247209 C 412.8,704.27 885.8,964.27 837,1484.272316247209 C 788.2,2004.27 174,2264.27 198,2784.272316247209 C 222,3304.27 894.4,3564.27 957,4084.272316247209 C 1019.6,4604.27 501.2,4864.27 511,5384.272316247209 C 520.8,5904.27 998.6,6164.27 1006,6684.272316247209 C 1013.4,7204.27 522.2,7464.27 548,7984.272316247209 C 573.8,8504.27 1109.8,8764.27 1135,9284.272316247208 C 1160.2,9804.27 728.4,10064.27 674,10584.272316247208 C 619.6,11104.27 893,11364.27 863,11884.272316247208 C 833,12404.27 481.2,12961.13 524,13184.272316247208 C 566.8,13407.42 966.4,13036.85 1077,13000" stroke="rgba(130, 141, 248, 1)" stroke-width="2"></path><path d="M 713,-1660.2672606309663 C 727.4,-1400.27 791.4,-880.27 785,-360.26726063096635 C 778.6,159.73 648.8,419.73 681,939.7327393690337 C 713.2,1459.73 1004.8,1719.73 946,2239.732739369034 C 887.2,2759.73 358.2,3019.73 387,3539.732739369034 C 415.8,4059.73 1076.2,4319.73 1090,4839.732739369034 C 1103.8,5359.73 485.4,5619.73 456,6139.732739369034 C 426.6,6659.73 954.6,6919.73 943,7439.732739369034 C 931.4,7959.73 370.8,8219.73 398,8739.732739369034 C 425.2,9259.73 1070,9519.73 1079,10039.732739369034 C 1088,10559.73 513.2,10819.73 443,11339.732739369034 C 372.8,11859.73 736.8,12307.68 728,12639.732739369034 C 719.2,12971.79 464.8,12927.95 399,13000" stroke="rgba(130, 141, 248, 1)" stroke-width="2"></path><path d="M 1245,-449.5306198167734 C 1044.8,-189.53 345.6,330.47 244,850.4693801832266 C 142.4,1370.47 733.4,1630.47 737,2150.4693801832263 C 740.6,2670.47 184.8,2930.47 262,3450.4693801832263 C 339.2,3970.47 1040.6,4230.47 1123,4750.469380183226 C 1205.4,5270.47 695.6,5530.47 674,6050.469380183226 C 652.4,6570.47 1091.6,6830.47 1015,7350.469380183226 C 938.4,7870.47 313,8130.47 291,8650.469380183227 C 269,9170.47 821.6,9430.47 905,9950.469380183227 C 988.4,10470.47 735.4,10730.47 708,11250.469380183227 C 680.6,11770.47 777.4,12030.47 768,12550.469380183227 C 758.6,13070.47 592,13760.56 661,13850.469380183227 C 730,13940.38 1022.6,13170.09 1113,13000" stroke="rgba(130, 141, 248, 1)" stroke-width="2"></path><path d="M 554,-2105.6167027823053 C 644,-1845.62 1049.2,-1325.62 1004,-805.6167027823052 C 958.8,-285.62 384.6,-25.62 328,494.3832972176948 C 271.4,1014.38 694.8,1274.38 721,1794.3832972176947 C 747.2,2314.38 408.2,2574.38 459,3094.3832972176947 C 509.8,3614.38 945.2,3874.38 975,4394.383297217695 C 1004.8,4914.38 625.6,5174.38 608,5694.383297217695 C 590.4,6214.38 943.4,6474.38 887,6994.383297217695 C 830.6,7514.38 327.4,7774.38 326,8294.383297217695 C 324.6,8814.38 881,9074.38 880,9594.383297217695 C 879,10114.38 308.2,10374.38 321,10894.383297217695 C 333.8,11414.38 866.4,11773.26 944,12194.383297217695 C 1021.6,12615.51 756,12838.88 709,13000" stroke="rgba(130, 141, 248, 1)" stroke-width="2"></path></g><defs><mask id="SvgjsMask1011"><rect width="1440" height="13000" fill="#ffffff"></rect></mask></defs></svg>